<svg width="1200" height="760" viewBox="0 0 1200 760" xmlns="http://www.w3.org/2000/svg">
  <defs>
    <linearGradient id="bg" x1="0" y1="0" x2="1" y2="1">
      <stop offset="0%" stop-color="#0f1734"/>
      <stop offset="100%" stop-color="#1a1e42"/>
    </linearGradient>
  </defs>
  <rect width="1200" height="760" fill="url(#bg)"/>
  <rect x="36" y="34" width="1128" height="70" rx="12" fill="#1f2a4f"/>
  <rect x="60" y="56" width="280" height="26" rx="6" fill="#2f3d6f"/>
  <rect x="36" y="136" width="1128" height="566" rx="14" fill="#101834"/>

  <rect x="62" y="168" width="1076" height="210" rx="12" fill="#182248"/>
  <rect x="90" y="200" width="210" height="22" rx="6" fill="#2b3a71"/>
  <rect x="90" y="240" width="480" height="16" rx="6" fill="#36467f"/>
  <rect x="90" y="268" width="440" height="16" rx="6" fill="#36467f"/>
  <rect x="90" y="296" width="490" height="16" rx="6" fill="#36467f"/>
  <rect x="900" y="250" width="210" height="38" rx="18" fill="#4f58dc"/>

  <rect x="62" y="398" width="350" height="264" rx="12" fill="#172341"/>
  <rect x="88" y="430" width="190" height="20" rx="6" fill="#2a3b6f"/>
  <rect x="88" y="464" width="280" height="16" rx="6" fill="#344575"/>
  <rect x="88" y="492" width="240" height="16" rx="6" fill="#344575"/>

  <rect x="425" y="398" width="350" height="264" rx="12" fill="#172341"/>
  <rect x="451" y="430" width="190" height="20" rx="6" fill="#2a3b6f"/>
  <rect x="451" y="464" width="280" height="16" rx="6" fill="#344575"/>
  <rect x="451" y="492" width="240" height="16" rx="6" fill="#344575"/>

  <rect x="788" y="398" width="350" height="264" rx="12" fill="#2f1a3e"/>
  <rect x="814" y="430" width="190" height="20" rx="6" fill="#8b4ac4"/>
  <rect x="814" y="464" width="280" height="16" rx="6" fill="#9f67d6"/>
  <rect x="814" y="492" width="240" height="16" rx="6" fill="#9f67d6"/>
  <rect x="814" y="556" width="220" height="34" rx="16" fill="#7d33c2"/>
</svg>
