<svg width="1200" height="760" viewBox="0 0 1200 760" xmlns="http://www.w3.org/2000/svg">
  <defs>
    <linearGradient id="bg" x1="0" y1="0" x2="1" y2="1">
      <stop offset="0%" stop-color="#0f1734"/>
      <stop offset="100%" stop-color="#1b2044"/>
    </linearGradient>
  </defs>
  <rect width="1200" height="760" fill="url(#bg)"/>
  <rect x="36" y="34" width="1128" height="70" rx="12" fill="#1f2a4f"/>
  <rect x="60" y="56" width="280" height="26" rx="6" fill="#2f3d6f"/>
  <rect x="366" y="56" width="210" height="26" rx="6" fill="#2f3d6f"/>
  <rect x="36" y="136" width="1128" height="566" rx="14" fill="#101834"/>

  <rect x="62" y="168" width="1076" height="48" rx="10" fill="#1d2850"/>
  <rect x="78" y="181" width="220" height="22" rx="6" fill="#283566"/>
  <rect x="728" y="181" width="188" height="22" rx="6" fill="#7d2431"/>
  <rect x="934" y="181" width="174" height="22" rx="6" fill="#7d2431"/>

  <rect x="62" y="236" width="1076" height="88" rx="10" fill="#3a1731"/>
  <rect x="78" y="262" width="290" height="22" rx="6" fill="#c74c72"/>
  <rect x="902" y="260" width="206" height="28" rx="14" fill="#ad1f43"/>

  <rect x="62" y="342" width="1076" height="88" rx="10" fill="#2a204d"/>
  <rect x="78" y="368" width="290" height="22" rx="6" fill="#6453c6"/>
  <rect x="902" y="366" width="206" height="28" rx="14" fill="#5642cf"/>

  <rect x="62" y="448" width="1076" height="88" rx="10" fill="#182248"/>
  <rect x="78" y="474" width="290" height="22" rx="6" fill="#2b3a71"/>
  <rect x="902" y="472" width="206" height="28" rx="14" fill="#ad1f43"/>

  <rect x="62" y="554" width="1076" height="88" rx="10" fill="#182248"/>
  <rect x="78" y="580" width="290" height="22" rx="6" fill="#2b3a71"/>
  <rect x="902" y="578" width="206" height="28" rx="14" fill="#ad1f43"/>
</svg>
