<svg width="1200" height="760" viewBox="0 0 1200 760" xmlns="http://www.w3.org/2000/svg">
  <defs>
    <linearGradient id="bg" x1="0" y1="0" x2="1" y2="1">
      <stop offset="0%" stop-color="#0f1734"/>
      <stop offset="100%" stop-color="#151d3d"/>
    </linearGradient>
  </defs>
  <rect width="1200" height="760" fill="url(#bg)"/>
  <rect x="36" y="34" width="1128" height="70" rx="12" fill="#1f2a4f"/>
  <rect x="60" y="56" width="280" height="26" rx="6" fill="#2f3d6f"/>
  <rect x="366" y="56" width="210" height="26" rx="6" fill="#2f3d6f"/>
  <rect x="36" y="136" width="1128" height="566" rx="14" fill="#101834"/>

  <rect x="62" y="168" width="1076" height="48" rx="10" fill="#1d2850"/>
  <rect x="78" y="181" width="220" height="22" rx="6" fill="#283566"/>
  <rect x="760" y="181" width="170" height="22" rx="6" fill="#283566"/>

  <rect x="62" y="236" width="1076" height="78" rx="10" fill="#182248"/>
  <rect x="78" y="260" width="270" height="20" rx="6" fill="#2b3a71"/>
  <rect x="908" y="258" width="200" height="24" rx="12" fill="#1d7a52"/>

  <rect x="62" y="332" width="1076" height="78" rx="10" fill="#182248"/>
  <rect x="78" y="356" width="270" height="20" rx="6" fill="#2b3a71"/>
  <rect x="908" y="354" width="200" height="24" rx="12" fill="#1d7a52"/>

  <rect x="62" y="428" width="1076" height="78" rx="10" fill="#182248"/>
  <rect x="78" y="452" width="270" height="20" rx="6" fill="#2b3a71"/>
  <rect x="908" y="450" width="200" height="24" rx="12" fill="#1d7a52"/>

  <rect x="62" y="524" width="1076" height="78" rx="10" fill="#182248"/>
  <rect x="78" y="548" width="270" height="20" rx="6" fill="#2b3a71"/>
  <rect x="908" y="546" width="200" height="24" rx="12" fill="#1d7a52"/>
</svg>
